<?xml version="1.0" encoding="UTF-8" standalone="no" ?>
<svg width="600" height="134.01482" xmlns="http://www.w3.org/2000/svg">
<path fill="#a0a1a2" d="m533.814575,101.12825c-18.38208,0 -33.305725,-14.923668 -33.305725,-33.305779c0,-18.391953 14.923645,-33.295822 33.305725,-33.295822c18.392029,0 33.28595,14.90387 33.28595,33.295822c0,18.382111 -14.893921,33.305779 -33.28595,33.305779m-0.247681,-100.006447c-36.704742,0 -66.452972,29.758148 -66.452972,66.452942c0,36.684875 29.74823,66.433144 66.452972,66.433144c36.684814,0 66.433105,-29.74823 66.433105,-66.433144c0,-36.694794 -29.748291,-66.452942 -66.433105,-66.452942"/>
<path fill="#4279bb" d="m533.56488,41.450401c-14.428162,0 -26.131287,11.683273 -26.131287,26.121368c0,14.418297 11.703125,26.121407 26.131287,26.121407c14.428223,0 26.121399,-11.70311 26.121399,-26.121407c0,-14.438095 -11.693176,-26.121368 -26.121399,-26.121368"/>
<path fill="#a0a1a2" d="m398.014099,85.59713l37.388489,0c-8.343781,24.040375 -31.086029,20.036964 -31.086029,20.036964c-18.372192,-0.336914 -26.993439,-15.359688 -26.993439,-15.359688c-15.369568,-26.725883 0,-46.406097 0,-46.406097c7.005981,-12.35714 25.368286,-13.694878 25.368286,-13.694878c22.365723,0 30.045502,16.697464 30.045502,16.697464l34.712921,0c-8.690613,-26.557426 -33.662506,-45.752068 -63.13327,-45.752068c-36.684875,0 -66.423218,29.758148 -66.423218,66.452942c0,36.684875 29.738342,66.443062 66.423218,66.443062c36.7146,0 66.452942,-29.758148 66.452942,-66.443062c0,-2.487259 -0.148621,-4.934921 -0.416168,-7.342911l-72.339233,0l0,25.368271z"/>
<path fill="#5c5c60" d="m256.595978,92.187935c14.378662,0 26.002472,-11.653557 26.002472,-26.022301c0,-14.378624 -11.62381,-26.032181 -26.002472,-26.032181c-14.368713,0 -26.022278,11.653557 -26.022278,26.032181c0,14.368744 11.653564,26.022301 26.022278,26.022301m-33.107559,-26.022301c0,-18.302765 14.834488,-33.107529 33.107559,-33.107529c18.28299,0 33.117462,14.804764 33.117462,33.107529c0,18.273087 -14.834473,33.097649 -33.117462,33.097649c-18.273071,0 -33.107559,-14.824562 -33.107559,-33.097649m-46.088974,0c4.082703,-0.535088 10.910324,-5.202446 13.318329,-8.205032c-0.8423,3.716049 -0.901749,14.448013 0.079254,18.144264c-2.744919,-4.221458 -9.245544,-9.423943 -13.397614,-9.939232m-23.802551,-35.049782c5.202469,0 9.29509,5.133095 9.29509,10.989571c0,5.836716 -4.092621,10.989609 -9.29509,10.989609l-17.886612,0l0,-21.979179l17.886612,0zm-0.069382,48.823967c5.212402,0 9.304993,5.133133 9.304993,10.999527c0,5.846596 -4.09259,10.979691 -9.304993,10.979691l-17.876694,0l0,-21.979218l17.876694,0zm103.04863,52.926514c36.437164,-0.009979 66.086334,-30.293266 66.076416,-66.720497c0,-37.220001 -29.639252,-66.125946 -66.076416,-66.145744c-36.407394,-0.039635 -54.997559,26.745644 -59.585663,37.566795c0.039627,-16.221809 -15.954254,-35.386734 -34.673264,-35.416451l-60.289261,0l0,130.051956l56.206543,0.01976c22.672882,0 38.795624,-19.630661 38.81543,-36.466866c5.192566,10.593224 23.11882,37.130821 59.526215,37.110985m-161.910912,-0.61441l-35.337196,0l0,-50.459015l-22.940441,0l0,50.459015l-36.268688,0l-0.118876,-130.081665l36.387602,0l0,48.397865l22.940441,0l0,-48.397865l35.337196,0l0,130.081665l-0.000038,0z"/>
</svg>